<svg xmlns="http://www.w3.org/2000/svg" width="168.263" height="37" viewBox="0 0 168.263 37">
  <g id="RU_Apple_Music_Listen_on_Badge_RGB_083120" transform="translate(1 1)">
    <g id="Сгруппировать_1" data-name="Сгруппировать 1" transform="translate(41.152 15.101)">
      <path id="Контур_26" data-name="Контур 26" d="M48.752,30.963H42.384l-1.528,4.516h-2.7l6.032-16.707h2.8l6.032,16.707H50.281Zm-5.708-2.084h5.048L45.6,21.551h-.069Z" transform="translate(-38.158 -18.609)" fill="#fff"/>
      <path id="Контур_27" data-name="Контур 27" d="M61.837,28.262c0,3.787-2.026,6.217-5.083,6.217a4.125,4.125,0,0,1-3.833-2.13h-.058v6.033h-2.5V22.172h2.42V24.2h.046a4.319,4.319,0,0,1,3.879-2.152C59.8,22.045,61.837,24.487,61.837,28.262Zm-2.57,0c0-2.465-1.274-4.086-3.219-4.086-1.91,0-3.2,1.655-3.2,4.086,0,2.455,1.285,4.1,3.2,4.1C57.993,32.361,59.266,30.752,59.266,28.262Z" transform="translate(-33.955 -17.483)" fill="#fff"/>
      <path id="Контур_28" data-name="Контур 28" d="M71.8,28.262c0,3.787-2.026,6.217-5.083,6.217a4.125,4.125,0,0,1-3.833-2.13h-.058v6.033h-2.5V22.172h2.42V24.2h.046a4.319,4.319,0,0,1,3.879-2.152C69.764,22.045,71.8,24.487,71.8,28.262Zm-2.57,0c0-2.465-1.274-4.086-3.219-4.086-1.91,0-3.2,1.655-3.2,4.086,0,2.455,1.285,4.1,3.2,4.1,1.945,0,3.219-1.609,3.219-4.1Z" transform="translate(-30.524 -17.483)" fill="#fff"/>
      <path id="Контур_29" data-name="Контур 29" d="M70.361,18.772h2.5V35.479h-2.5Z" transform="translate(-27.069 -18.609)" fill="#fff"/>
      <path id="Контур_30" data-name="Контур 30" d="M84.717,30.78c-.337,2.212-2.49,3.73-5.246,3.73-3.542,0-5.742-2.374-5.742-6.185s2.211-6.3,5.639-6.3c3.369,0,5.488,2.316,5.488,6.01v.857h-8.6v.151a3.171,3.171,0,0,0,3.277,3.449,2.756,2.756,0,0,0,2.813-1.714Zm-8.452-3.634h6.09a2.93,2.93,0,0,0-2.987-3.092,3.084,3.084,0,0,0-3.1,3.092Z" transform="translate(-25.909 -17.488)" fill="#fff"/>
      <path id="Контур_31" data-name="Контур 31" d="M101.772,35.479v-12.3h-.08l-5.037,12.17H94.733l-5.048-12.17H89.6v12.3H87.242V18.772h3l5.406,13.187h.093l5.4-13.187h3.01V35.479Z" transform="translate(-21.256 -18.609)" fill="#fff"/>
      <path id="Контур_32" data-name="Контур 32" d="M112.419,34.32h-2.4v-2.1h-.057a3.806,3.806,0,0,1-3.776,2.235,4.062,4.062,0,0,1-4.272-4.5V22.139h2.5v7.33c0,1.853.88,2.836,2.6,2.836a2.822,2.822,0,0,0,2.9-3.149V22.139h2.5Z" transform="translate(-16.211 -17.45)" fill="#fff"/>
      <path id="Контур_33" data-name="Контур 33" d="M116.314,22.035c2.7,0,4.631,1.494,4.69,3.646h-2.351c-.1-1.076-1.019-1.735-2.408-1.735-1.354,0-2.259.624-2.259,1.575,0,.729.6,1.215,1.865,1.528l2.05.474c2.455.591,3.381,1.493,3.381,3.278,0,2.2-2.084,3.705-5.061,3.705-2.872,0-4.8-1.471-4.99-3.694h2.476c.174,1.169,1.112,1.8,2.629,1.8,1.493,0,2.432-.614,2.432-1.587,0-.753-.463-1.158-1.737-1.482l-2.177-.533c-2.2-.533-3.311-1.657-3.311-3.345C111.543,23.505,113.476,22.035,116.314,22.035Z" transform="translate(-12.995 -17.485)" fill="#fff"/>
      <path id="Контур_34" data-name="Контур 34" d="M120.157,20.132a1.453,1.453,0,1,1,1.447,1.425A1.438,1.438,0,0,1,120.157,20.132Zm.2,3.208h2.5V35.521h-2.5Z" transform="translate(-9.921 -18.651)" fill="#fff"/>
      <path id="Контур_35" data-name="Контур 35" d="M132.382,26.374a2.69,2.69,0,0,0-2.872-2.246c-1.922,0-3.2,1.609-3.2,4.145,0,2.594,1.284,4.157,3.219,4.157a2.623,2.623,0,0,0,2.848-2.189h2.408a4.869,4.869,0,0,1-5.28,4.273c-3.474,0-5.743-2.374-5.743-6.242,0-3.787,2.269-6.242,5.72-6.242a4.9,4.9,0,0,1,5.28,4.343Z" transform="translate(-8.678 -17.493)" fill="#fff"/>
    </g>
    <path id="Контур_36" data-name="Контур 36" d="M38.21,12.852c0-2.6,1.384-4.208,3.614-4.208a3.2,3.2,0,0,1,3.335,2.78H43.92a2.062,2.062,0,0,0-2.1-1.618c-1.44,0-2.341,1.173-2.341,3.046s.9,3.041,2.346,3.041a2.01,2.01,0,0,0,2.09-1.478h1.24a3.129,3.129,0,0,1-3.33,2.64C39.6,17.055,38.21,15.449,38.21,12.852Z" transform="translate(3.012 -6.997)" fill="#fff"/>
    <path id="Контур_37" data-name="Контур 37" d="M44.433,16.367a1.169,1.169,0,0,1-.412-.066V15.182a1.139,1.139,0,0,0,.322.045c.589,0,.8-.706.873-1.751l.211-3.224H49.6v6.054H48.4V11.258H46.484l-.167,2.28C46.2,15.26,45.773,16.367,44.433,16.367Z" transform="translate(5.013 -6.442)" fill="#fff"/>
    <path id="Контур_38" data-name="Контур 38" d="M49.9,18.474V17.445a2.815,2.815,0,0,0,.389.022,1.036,1.036,0,0,0,1.095-.845l.089-.295-2.19-6.076h1.3L52.1,15.06H52.2l1.512-4.808h1.268l-2.257,6.3C52.2,18.029,51.629,18.5,50.395,18.5,50.295,18.5,50.011,18.49,49.9,18.474Z" transform="translate(6.825 -6.442)" fill="#fff"/>
    <path id="Контур_39" data-name="Контур 39" d="M54.631,10.252h1.2V15.3h2.085V10.252h1.2V15.3h2.084V10.252h1.2v6.054H54.631Z" transform="translate(8.666 -6.442)" fill="#fff"/>
    <path id="Контур_40" data-name="Контур 40" d="M61.638,14.624c0-1.09.811-1.718,2.252-1.807l1.64-.095V12.2c0-.639-.423-1-1.24-1-.667,0-1.128.245-1.262.673H61.871c.123-1.04,1.1-1.707,2.474-1.707,1.518,0,2.374.756,2.374,2.034v4.136H65.568v-.851h-.095a2.036,2.036,0,0,1-1.818.95,1.828,1.828,0,0,1-2.018-1.812Zm3.891-.517V13.6l-1.479.095c-.834.056-1.212.339-1.212.873s.473.862,1.123.862a1.427,1.427,0,0,0,1.568-1.323Z" transform="translate(11.079 -6.472)" fill="#fff"/>
    <path id="Контур_41" data-name="Контур 41" d="M66.887,17.008V10.954h1.184v4.164h.095l2.791-4.164H72.14v6.054H70.956V12.822h-.089l-2.8,4.186Zm1.6-8.795a1,1,0,1,0,1.979,0h.99a1.985,1.985,0,0,1-3.964,0Z" transform="translate(12.887 -7.144)" fill="#fff"/>
    <path id="Контур_42" data-name="Контур 42" d="M76.93,11.258H75.024v5.048h-1.2V11.258H71.921V10.252H76.93Z" transform="translate(14.62 -6.442)" fill="#fff"/>
    <path id="Контур_43" data-name="Контур 43" d="M81.828,14.7A2.458,2.458,0,0,1,79.2,16.452a2.749,2.749,0,0,1-2.8-3.125,2.791,2.791,0,0,1,2.79-3.163c1.684,0,2.7,1.151,2.7,3.052v.417H77.626V13.7a1.6,1.6,0,0,0,1.612,1.734,1.454,1.454,0,0,0,1.44-.734Zm-4.2-1.951h3.058a1.461,1.461,0,0,0-1.49-1.568,1.548,1.548,0,0,0-1.567,1.568Z" transform="translate(16.157 -6.472)" fill="#fff"/>
    <path id="Контур_44" data-name="Контур 44" d="M84.2,10.252H86.93c1.184,0,1.879.6,1.879,1.539a1.3,1.3,0,0,1-1.023,1.279v.095a1.382,1.382,0,0,1,1.294,1.4c0,1.056-.794,1.745-2.123,1.745H84.2Zm1.184.917v1.568h1.184c.722,0,1.067-.278,1.067-.79,0-.472-.3-.778-.935-.778Zm0,2.446v1.774H86.8c.706,0,1.084-.312,1.084-.884,0-.606-.428-.889-1.234-.889Z" transform="translate(18.849 -6.442)" fill="#fff"/>
    <g id="Сгруппировать_2" data-name="Сгруппировать 2" transform="translate(0)">
      <g id="Контур_45" data-name="Контур 45" transform="translate(-7.548 -7.418)" fill="none" fill-rule="evenodd">
        <path d="M41.376,18c0-.4,0-.808,0-1.212,0-.34-.006-.681-.015-1.021a14.832,14.832,0,0,0-.2-2.222,7.5,7.5,0,0,0-.7-2.113,7.1,7.1,0,0,0-3.106-3.106,7.5,7.5,0,0,0-2.112-.7,14.828,14.828,0,0,0-2.222-.2c-.34-.009-.681-.013-1.021-.015-.4,0-.808,0-1.212,0H18.13c-.4,0-.808,0-1.212,0-.34,0-.681.006-1.021.015a14.828,14.828,0,0,0-2.222.2,7.5,7.5,0,0,0-2.112.7,7.1,7.1,0,0,0-3.106,3.106,7.5,7.5,0,0,0-.7,2.113,14.83,14.83,0,0,0-.2,2.222c-.009.34-.013.68-.015,1.021,0,.4,0,.808,0,1.212V30.665c0,.4,0,.808,0,1.212,0,.34.006.681.015,1.021a14.83,14.83,0,0,0,.2,2.222,7.5,7.5,0,0,0,.7,2.113,7.1,7.1,0,0,0,3.106,3.106,7.5,7.5,0,0,0,2.112.7,14.829,14.829,0,0,0,2.222.2c.34.009.68.013,1.021.015.4,0,.808,0,1.212,0H30.794c.4,0,.808,0,1.212,0,.34,0,.681-.006,1.021-.015a14.829,14.829,0,0,0,2.222-.2,7.5,7.5,0,0,0,2.112-.7,7.1,7.1,0,0,0,3.106-3.106,7.5,7.5,0,0,0,.7-2.113,14.831,14.831,0,0,0,.2-2.222c.009-.34.013-.681.015-1.021,0-.4,0-.808,0-1.212Z" stroke="none"/>
        <path d="M 17.98272514343262 7.418094635009766 C 17.62773895263672 7.418094635009766 17.27280044555664 7.418228149414062 16.91781997680664 7.420387268066406 C 16.57746124267578 7.422458648681641 16.23720932006836 7.426380157470703 15.8969612121582 7.435577392578125 C 15.15230178833008 7.444847106933594 14.40938949584961 7.510200500488281 13.67454147338867 7.631088256835938 C 12.93991851806641 7.756809234619141 12.2281608581543 7.991367340087891 11.56272125244141 8.327007293701172 C 10.22542190551758 9.008159637451172 9.138191223144531 10.09534072875977 8.456981658935547 11.4326171875 C 8.121109008789062 12.098388671875 7.886440277099609 12.81053924560547 7.760711669921875 13.54555892944336 C 7.639919281005859 14.2801399230957 7.574611663818359 15.02276992797852 7.565349578857422 15.76715850830078 C 7.556148529052734 16.10739898681641 7.552211761474609 16.44765853881836 7.550140380859375 16.78799819946289 C 7.547691345214844 17.1920280456543 7.547870635986328 17.59605979919434 7.547870635986328 18.00009918212891 L 7.547870635986328 30.66463851928711 C 7.547870635986328 31.06868934631348 7.547691345214844 31.47270965576172 7.550140380859375 31.87673950195312 C 7.552211761474609 32.21707916259766 7.556148529052734 32.55733871459961 7.565349578857422 32.89757919311523 C 7.574611663818359 33.6419677734375 7.639919281005859 34.38459777832031 7.760711669921875 35.11917877197266 C 7.886421203613281 35.85419845581055 8.121078491210938 36.56634902954102 8.456928253173828 37.23211669921875 C 9.138130187988281 38.56940841674805 10.22536087036133 39.65657806396484 11.56267166137695 40.33773040771484 C 12.22809982299805 40.67337799072266 12.93986892700195 40.90792846679688 13.67448043823242 41.03364944458008 C 14.40932846069336 41.1545295715332 15.15224075317383 41.21988677978516 15.89691925048828 41.22916030883789 C 16.23714828491211 41.23834991455078 16.57741165161133 41.24229049682617 16.91775894165039 41.24435043334961 C 17.32180213928223 41.24681091308594 17.72583198547363 41.24664306640625 18.12985038757324 41.24663925170898 L 30.79438018798828 41.24663925170898 C 31.19841194152832 41.24663925170898 31.60243988037109 41.24680709838867 32.0064697265625 41.24435043334961 C 32.34680938720703 41.24229049682617 32.68707275390625 41.23834991455078 33.02732849121094 41.22916030883789 C 33.77198791503906 41.21988677978516 34.51490020751953 41.1545295715332 35.24974060058594 41.03364944458008 C 35.98435974121094 40.90792846679688 36.69612884521484 40.67337799072266 37.361572265625 40.33773040771484 C 38.69887924194336 39.65657806396484 39.78610992431641 38.56939697265625 40.46730041503906 37.23211669921875 C 40.80316162109375 36.56634902954102 41.0378303527832 35.85418701171875 41.16353988647461 35.11917877197266 C 41.28432083129883 34.38459014892578 41.3496208190918 33.64196014404297 41.35889053344727 32.89757919311523 C 41.36806869506836 32.55733871459961 41.37202072143555 32.21707916259766 41.37408065795898 31.87673950195312 C 41.37654113769531 31.47269821166992 41.37635040283203 31.06867790222168 41.37635040283203 30.66463851928711 L 41.37631988525391 18.00009918212891 C 41.37631988525391 17.59605979919434 41.37649917602539 17.1920280456543 41.37403869628906 16.78799819946289 C 41.37197113037109 16.44765853881836 41.3680305480957 16.10739898681641 41.35884857177734 15.76715850830078 C 41.34957122802734 15.02276992797852 41.28427124023438 14.2801399230957 41.16349029541016 13.54555892944336 C 41.03778076171875 12.81053924560547 40.80311965942383 12.098388671875 40.46725082397461 11.4326171875 C 39.78606033325195 10.09532928466797 38.6988410949707 9.008148193359375 37.36153030395508 8.327007293701172 C 36.69607925415039 7.991367340087891 35.98432159423828 7.756809234619141 35.24969863891602 7.631088256835938 C 34.51485061645508 7.510200500488281 33.77194976806641 7.444847106933594 33.02727890014648 7.435577392578125 C 32.68703079223633 7.426380157470703 32.34677124023438 7.422458648681641 32.00643920898438 7.420387268066406 C 31.60239791870117 7.417926788330078 31.19836807250977 7.418102264404297 30.79434967041016 7.418098449707031 L 18.12990951538086 7.418098449707031 C 18.08086013793945 7.418098449707031 18.03177452087402 7.418094635009766 17.98272514343262 7.418094635009766 M 17.98271942138672 6.418098449707031 L 30.94153022766113 6.418098449707031 C 31.29850006103516 6.418098449707031 31.65553092956543 6.418239593505859 32.01251983642578 6.42041015625 C 32.42603302001953 6.422920227050781 32.74550628662109 6.427661895751953 33.04696655273438 6.435752868652344 C 33.83690643310547 6.445949554443359 34.63259506225586 6.516132354736328 35.41202926635742 6.64434814453125 L 35.41838073730469 6.645420074462891 C 36.25167846679688 6.788028717041016 37.05696868896484 7.053398132324219 37.81187057495117 7.434150695800781 C 39.35099029541016 8.218067169189453 40.57611083984375 9.443149566650391 41.35831069946289 10.97872924804688 C 41.74108123779297 11.73744964599609 42.00656890869141 12.54316711425781 42.1491813659668 13.37697982788086 L 42.15023803710938 13.38331985473633 C 42.27831649780273 14.16226196289062 42.34843826293945 14.95748138427734 42.35866928100586 15.74691772460938 C 42.36677169799805 16.04935073852539 42.37150955200195 16.36897277832031 42.37401962280273 16.78191947937012 C 42.37633895874023 17.1632080078125 42.3763313293457 17.54933929443359 42.37631988525391 17.92275810241699 L 42.37635040283203 30.74569892883301 C 42.37635803222656 31.11788940429688 42.37638092041016 31.50275802612305 42.37406158447266 31.8828296661377 C 42.37156677246094 32.29520416259766 42.36682891845703 32.61482238769531 42.35871124267578 32.9178352355957 C 42.34848785400391 33.70725250244141 42.27836608886719 34.50244522094727 42.15029144287109 35.28141784667969 L 42.14923095703125 35.28775787353516 C 42.00661849975586 36.12154769897461 41.74113082885742 36.9272575378418 41.36013031005859 37.68251800537109 C 40.576171875 39.2215690612793 39.35103988647461 40.44664764404297 37.8154296875 41.22879791259766 C 37.05706787109375 41.611328125 36.25178146362305 41.8766975402832 35.41841888427734 42.01931762695312 L 35.41205978393555 42.02038955688477 C 34.63276672363281 42.14858627319336 33.83732986450195 42.21875381469727 33.04764175415039 42.22897720336914 C 32.7450065612793 42.23708724975586 32.42535400390625 42.24182891845703 32.01251983642578 42.24432754516602 C 31.65555000305176 42.24649810791016 31.29857063293457 42.24663925170898 30.94156074523926 42.24663925170898 L 17.98266983032227 42.24663925170898 C 17.62568092346191 42.24663925170898 17.26866912841797 42.24649810791016 16.91167831420898 42.24432754516602 C 16.49885559082031 42.24182891845703 16.1792106628418 42.23708724975586 15.87660598754883 42.22897720336914 C 15.08691787719727 42.21875381469727 14.29147338867188 42.14858627319336 13.51216888427734 42.02038955688477 L 13.50579071044922 42.01931762695312 C 12.67243957519531 41.8766975402832 11.86716079711914 41.611328125 11.11230850219727 41.2305793762207 C 9.573200225830078 40.44664764404297 8.348068237304688 39.2215690612793 7.565868377685547 37.68600845336914 C 7.183109283447266 36.9272575378418 6.917621612548828 36.12154769897461 6.775020599365234 35.28775787353516 L 6.773960113525391 35.28144073486328 C 6.645832061767578 34.50222396850586 6.575710296630859 33.70685577392578 6.565521240234375 32.91727447509766 C 6.557415008544922 32.61518096923828 6.552669525146484 32.29568481445312 6.550159454345703 31.8828182220459 C 6.5478515625 31.50160980224609 6.547859191894531 31.11557960510254 6.547870635986328 30.74225807189941 L 6.547870635986328 17.9224796295166 C 6.547859191894531 17.54915809631348 6.5478515625 17.16312789916992 6.550159454345703 16.78193855285645 C 6.552669525146484 16.36905288696289 6.557415008544922 16.04955673217773 6.565521240234375 15.74746322631836 C 6.575710296630859 14.95788192749023 6.645832061767578 14.16251373291016 6.773960113525391 13.38329696655273 L 6.775028228759766 13.37694931030273 C 6.917648315429688 12.54314804077148 7.183158874511719 11.7374382019043 7.564159393310547 10.98220825195312 C 8.348140716552734 9.443157196044922 9.573261260986328 8.218090057373047 11.10886001586914 7.435939788818359 C 11.86727142333984 7.053398132324219 12.67255020141602 6.788028717041016 13.505859375 6.645420074462891 L 13.51221084594727 6.64434814453125 C 14.29164505004883 6.516132354736328 15.08733749389648 6.445949554443359 15.87727355957031 6.435752868652344 C 16.17874526977539 6.427661895751953 16.49821853637695 6.422920227050781 16.91173934936523 6.42041015625 C 17.26873970031738 6.418239593505859 17.62570953369141 6.418098449707031 17.98271942138672 6.418098449707031 Z" stroke="none" fill="#fff"/>
      </g>
      <g id="Glyph" transform="translate(6.687 5.164)">
        <g id="Контур_46" data-name="Контур 46" transform="translate(-12.522 -11.259)" fill="none" fill-rule="evenodd">
          <path d="M29.75,11.263c-.082.007-.808.136-.9.154L18.8,13.446h0a1.4,1.4,0,0,0-.627.282,1.022,1.022,0,0,0-.338.653,2.253,2.253,0,0,0-.023.34s0,10.272,0,12.584a1.219,1.219,0,0,1-.222.823,1.139,1.139,0,0,1-.733.375l-.657.132a11.472,11.472,0,0,0-1.861.471,2.932,2.932,0,0,0-1.1.705,2.677,2.677,0,0,0,.133,3.778,2.535,2.535,0,0,0,1.221.626,4.5,4.5,0,0,0,1.814-.092,3.7,3.7,0,0,0,1.175-.433,2.949,2.949,0,0,0,.925-.856A3.136,3.136,0,0,0,19,31.674a5.832,5.832,0,0,0,.112-1.246V19.513c0-.585.166-.739.637-.853,0,0,8.358-1.686,8.747-1.761.544-.1.8.051.8.621v7.451a1.239,1.239,0,0,1-.2.838,1.14,1.14,0,0,1-.734.375l-.656.132a11.473,11.473,0,0,0-1.861.471,2.93,2.93,0,0,0-1.1.705,2.63,2.63,0,0,0,.133,3.778,2.527,2.527,0,0,0,1.221.62,4.5,4.5,0,0,0,1.814-.092,3.689,3.689,0,0,0,1.175-.427,2.95,2.95,0,0,0,.926-.856,3.138,3.138,0,0,0,.493-1.161,5.811,5.811,0,0,0,.094-1.246V12.152C30.6,11.573,30.294,11.217,29.75,11.263Z" stroke="none"/>
          <path d="M 29.84373474121094 11.25933074951172 C 29.81339645385742 11.25933074951172 29.78223037719727 11.26069641113281 29.75022506713867 11.26345825195312 C 29.66850662231445 11.2705192565918 28.94191551208496 11.39958953857422 28.85469436645508 11.41738891601562 L 18.79616546630859 13.44662857055664 C 18.56712532043457 13.48723983764648 18.35174560546875 13.5840892791748 18.16936492919922 13.72848892211914 C 17.97951507568359 13.8966178894043 17.85895538330078 14.12932777404785 17.83113479614258 14.38138771057129 C 17.81488609313965 14.49409866333008 17.80720520019531 14.60787773132324 17.80816459655762 14.72173881530762 C 17.80815505981445 14.72173881530762 17.80831527709961 24.99406814575195 17.80831527709961 27.30557823181152 C 17.8357048034668 27.59785842895508 17.7567253112793 27.89018821716309 17.58588600158691 28.12890815734863 C 17.39667510986328 28.34092903137207 17.13507461547852 28.47457885742188 16.8524055480957 28.50364875793457 L 16.19589614868164 28.63607788085938 C 15.56359481811523 28.74078750610352 14.94117546081543 28.89831924438477 14.33518600463867 29.10697746276855 C 13.92106437683105 29.2567081451416 13.54598617553711 29.49778747558594 13.23779487609863 29.81231880187988 C 12.23367500305176 30.8931770324707 12.29327583312988 32.58268737792969 13.37104606628418 33.59012603759766 C 13.71269607543945 33.90695953369141 14.13504600524902 34.12351989746094 14.59172439575195 34.21601867675781 C 15.19636154174805 34.30913925170898 15.81363487243652 34.27787780761719 16.40576553344727 34.12413024902344 C 16.81920433044434 34.04740905761719 17.21654510498047 33.90081787109375 17.58073616027832 33.69062805175781 C 17.94730567932129 33.47536849975586 18.26300430297852 33.18339920043945 18.50621604919434 32.83474731445312 C 18.74735450744629 32.48524856567383 18.91500473022461 32.09040832519531 18.99901580810547 31.6741886138916 C 19.08104515075684 31.26400756835938 19.11870574951172 30.8462085723877 19.11135482788086 30.4279670715332 L 19.11135482788086 19.51325798034668 C 19.11135482788086 18.92837905883789 19.27709579467773 18.77427864074707 19.74850463867188 18.66039848327637 C 19.74850463867188 18.66039848327637 28.10627555847168 16.97476768493652 28.49553489685059 16.89895820617676 C 29.04000663757324 16.79425239562988 29.29563522338867 16.94967079162598 29.29563522338867 17.51976776123047 L 29.29547500610352 24.97052764892578 C 29.33022499084473 25.26537895202637 29.25795555114746 25.56289863586426 29.09181594848633 25.8089485168457 C 28.90255546569824 26.02093887329102 28.64094543457031 26.15457916259766 28.3582649230957 26.18368911743164 C 28.13943481445312 26.22783851623535 27.92062568664551 26.27195930480957 27.70184516906738 26.31603813171387 C 27.06953430175781 26.4207878112793 26.44711494445801 26.57832908630371 25.84111595153809 26.78702926635742 C 25.42692565917969 26.93667793273926 25.05180549621582 27.17779922485352 24.74365615844727 27.49243927001953 C 24.24941444396973 28.00564765930176 23.98455429077148 28.69743919372559 24.00966453552246 29.40949821472168 C 24.0347843170166 30.12156867980957 24.34773445129395 30.79296875 24.87691497802734 31.27008819580078 C 25.21902465820312 31.58505821228027 25.64141464233398 31.79950714111328 26.09758567810059 31.88983917236328 C 26.70224380493164 31.98294639587402 27.31954383850098 31.9516773223877 27.91169548034668 31.79793930053711 C 28.32480621337891 31.72340774536133 28.72217559814453 31.57891845703125 29.08666610717773 31.37067794799805 C 29.45325469970703 31.1554069519043 29.76898574829102 30.86344909667969 30.01222610473633 30.51478958129883 C 30.2532958984375 30.16525840759277 30.42092514038086 29.77042770385742 30.50495529174805 29.35422897338867 C 30.58100509643555 28.94340896606445 30.61253547668457 28.52557754516602 30.59897613525391 28.10799789428711 L 30.59897613525391 12.1524772644043 C 30.59892845153809 11.60744094848633 30.32850646972656 11.25933837890625 29.84373474121094 11.25933074951172 M 29.84373474121094 10.25932693481445 L 29.84375381469727 10.25932693481445 C 30.87710571289062 10.25934982299805 31.59887504577637 11.03780746459961 31.59897613525391 12.15238952636719 L 31.59897613525391 28.09251403808594 C 31.61344718933105 28.57546424865723 31.57620239257812 29.06112289428711 31.48824501037598 29.53624725341797 L 31.48517608642578 29.55212783813477 C 31.37373542785645 30.10409927368164 31.15512466430664 30.61899948120117 30.83542633056641 31.08254814147949 L 30.83236503601074 31.08694839477539 C 30.50435638427734 31.5571174621582 30.0873851776123 31.94269943237305 29.59303665161133 32.23299789428711 L 29.58273506164551 32.23896026611328 C 29.12925338745117 32.49803924560547 28.63960266113281 32.67832946777344 28.12672424316406 32.77513122558594 C 27.41671371459961 32.95430374145508 26.66930961608887 32.98966979980469 25.94539451599121 32.87818908691406 L 25.90333557128906 32.87078857421875 C 25.26823234558105 32.74502944946289 24.68062210083008 32.44723892211914 24.20368385314941 32.00953674316406 C 23.47960662841797 31.35490036010742 23.04470825195312 30.42037773132324 23.01028442382812 29.44475746154785 C 22.9758243560791 28.46750831604004 23.3450756072998 27.50308799743652 24.02336502075195 26.79876899719238 L 24.02921485900879 26.79273796081543 C 24.44006538391113 26.37323760986328 24.94910430908203 26.04604911804199 25.50130462646484 25.84653854370117 L 25.51549530029297 25.84152793884277 C 26.16669273376465 25.61726570129395 26.84128570556641 25.44600105285645 27.5207633972168 25.33242607116699 L 28.20781517028809 25.19389915466309 L 28.25582504272461 25.1889476776123 C 28.26959419250488 25.18753051757812 28.28292274475098 25.18411445617676 28.29544448852539 25.17888832092285 C 28.30354309082031 25.1494026184082 28.30598258972168 25.1184024810791 28.30234527587891 25.08757781982422 L 28.29547500610352 25.02923774719238 L 28.29562568664551 17.95859336853027 C 26.7391242980957 18.27082443237305 21.14749526977539 19.39839744567871 20.11135482788086 19.60735321044922 L 20.11135482788086 30.41930389404297 C 20.11925888061523 30.90545272827148 20.07493591308594 31.39355659484863 19.97959518432617 31.87028884887695 C 19.8678150177002 32.42411804199219 19.64914512634277 32.9390983581543 19.32931518554688 33.40264892578125 L 19.32637596130371 33.40687942504883 C 19.00300598144531 33.87044906616211 18.5744743347168 34.26674652099609 18.08710479736328 34.55294036865234 L 18.08060455322266 34.55672836303711 C 17.62708282470703 34.81847381591797 17.13692855834961 35.00140380859375 16.62311172485352 35.10073471069336 C 15.91247367858887 35.28042984008789 15.16434478759766 35.31597137451172 14.43952560424805 35.20436859130859 L 14.3932056427002 35.19611740112305 C 13.75621604919434 35.06710052490234 13.16762542724609 34.76529693603516 12.69107437133789 34.32336807250977 C 11.21150588989258 32.94035720825195 11.1294059753418 30.61259841918945 12.50515556335449 29.13169860839844 L 12.52352523803711 29.11244773864746 C 12.93430519104004 28.69321823120117 13.44319534301758 28.36612892150879 13.99516487121582 28.16655921936035 L 14.00961494445801 28.16145896911621 C 14.6608715057373 27.93720817565918 15.33533477783203 27.76600456237793 16.01466178894043 27.65248870849609 L 16.70203590393066 27.51383781433105 L 16.7501049041748 27.50889778137207 C 16.7679615020752 27.50705718994141 16.78507804870605 27.5018424987793 16.8006477355957 27.49366188049316 C 16.81149482727051 27.46356010437012 16.81570816040039 27.43121147155762 16.81267547607422 27.39887809753418 L 16.80831527709961 27.35232925415039 L 16.80816459655762 14.73700904846191 C 16.80816459655762 14.73425483703613 16.80817604064941 14.73151206970215 16.80819511413574 14.72876739501953 C 16.80692100524902 14.57033157348633 16.81737518310547 14.41050338745117 16.83926773071289 14.25348091125488 C 16.89812088012695 13.76082420349121 17.13455772399902 13.30913925170898 17.50638580322266 12.9798583984375 L 17.54862594604492 12.94447708129883 C 17.85673713684082 12.70052337646484 18.22356414794922 12.5345344543457 18.61014175415039 12.46404647827148 L 28.65693664550781 10.43713760375977 C 28.68404388427734 10.43159866333008 29.4988956451416 10.28144836425781 29.66415405273438 10.26716995239258 C 29.72455596923828 10.26195907592773 29.78491592407227 10.25932693481445 29.84373474121094 10.25932693481445 Z" stroke="none" fill="#fff"/>
        </g>
      </g>
    </g>
  </g>
</svg>
