<svg xmlns="http://www.w3.org/2000/svg" width="30.545" height="27.231" viewBox="0 0 30.545 27.231">
  <path id="solid_ticket-alt" data-name="solid ticket-alt" d="M5.667,68.25H19.833v8.5H5.667ZM23.375,72.5A2.125,2.125,0,0,0,25.5,74.625v4.25A2.125,2.125,0,0,1,23.375,81H2.125A2.125,2.125,0,0,1,0,78.875v-4.25A2.125,2.125,0,0,0,2.125,72.5,2.125,2.125,0,0,0,0,70.375v-4.25A2.125,2.125,0,0,1,2.125,64h21.25A2.125,2.125,0,0,1,25.5,66.125v4.25A2.125,2.125,0,0,0,23.375,72.5ZM21.25,67.9a1.062,1.062,0,0,0-1.062-1.063H5.313A1.062,1.062,0,0,0,4.25,67.9V77.1a1.062,1.062,0,0,0,1.063,1.062H20.188A1.062,1.062,0,0,0,21.25,77.1Z" transform="matrix(0.875, -0.485, 0.485, 0.875, -31.028, -43.613)" fill="#fff"/>
</svg>
