<svg id="VK_Music_Badge_Main" xmlns="http://www.w3.org/2000/svg" width="156.316" height="36" viewBox="0 0 156.316 36">
  <path id="Контур_48" data-name="Контур 48" d="M14.131,14.131C12.064,16.2,12,19.488,12,25.945c5.787,0,9.4-2.484,12.569-4.664,2.476-1.7,4.681-3.219,7.44-3.219,4.106,0,7.692,2.9,9.593,4.443.268.217.5.407.7.558-.06-4.6-.383-7.2-2.117-8.933C38.054,12,34.624,12,27.764,12H26.552C19.692,12,16.262,12,14.131,14.131ZM25.809,42.316h0ZM42.316,27.953v-.188h0v.188Z" transform="translate(-12 -10.105)" fill="#fff" fill-rule="evenodd"/>
  <g id="Контур_49" data-name="Контур 49" transform="translate(-12 -11.442)" fill="none" fill-rule="evenodd">
    <path d="M12,26.282c5.787,0,9.4-2.484,12.569-4.664,2.476-1.7,4.681-3.219,7.44-3.219,4.106,0,7.692,2.9,9.593,4.443.268.217.5.407.7.558.014,1.053.014,2.211.014,3.488V28.1h0c0,6.86,0,10.289-2.131,12.421-2.025,2.025-5.223,2.126-11.421,2.131H25.552c-6.2-.005-9.4-.106-11.421-2.131C12,38.391,12,34.961,12,28.1V26.889Q12,26.581,12,26.282Z" stroke="none"/>
    <path d="M 32.00841522216797 19.39999771118164 C 29.56020355224609 19.39999771118164 27.50974464416504 20.80990600585938 25.13507461547852 22.44275665283203 C 22.02044677734375 24.58442687988281 18.51357269287109 26.99588012695312 13.00000381469727 27.258544921875 L 13.00000381469727 28.10133743286133 C 13.00000381469727 34.67633819580078 13.00000381469727 37.97659683227539 14.83810424804688 39.81478881835938 C 15.65996551513672 40.63661956787109 16.73341369628906 41.09758758544922 18.42743301391602 41.35617828369141 C 20.20090484619141 41.62688827514648 22.60045433044434 41.65023803710938 25.55229377746582 41.65263748168945 L 28.7626838684082 41.65263748168945 C 31.71533393859863 41.65023803710938 34.11487579345703 41.62688827514648 35.88834381103516 41.35617828369141 C 37.58237457275391 41.09758758544922 38.65581512451172 40.63661956787109 39.47765350341797 39.8148193359375 C 41.3157844543457 37.97659683227539 41.3157844543457 34.67633819580078 41.3157844543457 28.10133743286133 L 41.3157844543457 26.88870620727539 C 41.3157844543457 25.82612228393555 41.3157844543457 24.813720703125 41.30738067626953 23.89078903198242 C 41.19961547851562 23.80434036254883 41.0871696472168 23.7132682800293 40.97189331054688 23.61990737915039 C 39.15060424804688 22.14512634277344 35.76049423217773 19.39999771118164 32.00841522216797 19.39999771118164 M 32.00841522216797 18.39999771118164 C 36.11479187011719 18.39999771118164 39.70029449462891 21.30349731445312 41.60147476196289 22.84296798706055 C 41.86957550048828 23.06010818481445 42.10424423217773 23.25005722045898 42.30205535888672 23.40096664428711 C 42.3157844543457 24.4538688659668 42.3157844543457 25.61184692382812 42.3157844543457 26.88870620727539 L 42.3157844543457 28.10133743286133 C 42.3157844543457 34.96103668212891 42.3157844543457 38.39079666137695 40.18477630615234 40.52190780639648 C 38.15977478027344 42.54681777954102 34.96212387084961 42.64760589599609 28.76349449157715 42.65263748168945 L 25.55229377746582 42.65263748168945 C 19.35366439819336 42.64760589599609 16.156005859375 42.54681777954102 14.13101577758789 40.52190780639648 C 12.00000381469727 38.39079666137695 12.00000381469727 34.96103668212891 12.00000381469727 28.10133743286133 L 12.00000381469727 26.88870620727539 C 12.00000381469727 26.68340682983398 12.00000381469727 26.48124694824219 12.00009536743164 26.28210830688477 C 17.78671264648438 26.28210830688477 21.39960479736328 23.7977294921875 24.56873321533203 21.61858749389648 C 27.04458427429199 19.91616821289062 29.2494945526123 18.39999771118164 32.00841522216797 18.39999771118164 Z" stroke="none" fill="#fff"/>
  </g>
  <path id="Контур_50" data-name="Контур 50" d="M36.8,28.237a1.363,1.363,0,0,1,1.364-1.357h0a1.363,1.363,0,0,1,1.364,1.357v5.472a1.363,1.363,0,0,1-1.364,1.357h0A1.363,1.363,0,0,1,36.8,33.709Z" transform="translate(-13.305 -10.888)" fill="#fff"/>
  <path id="Контур_51" data-name="Контур 51" d="M31.68,24.557A1.363,1.363,0,0,1,33.045,23.2h0a1.363,1.363,0,0,1,1.364,1.357V37a1.363,1.363,0,0,1-1.364,1.357h0A1.363,1.363,0,0,1,31.68,37Z" transform="translate(-13.036 -10.695)" fill="#fff"/>
  <path id="Контур_52" data-name="Контур 52" d="M26.56,28.237a1.363,1.363,0,0,1,1.364-1.357h0a1.363,1.363,0,0,1,1.364,1.357v5.472a1.363,1.363,0,0,1-1.364,1.357h0a1.363,1.363,0,0,1-1.364-1.357Z" transform="translate(-12.766 -10.888)" fill="#fff"/>
  <path id="Контур_53" data-name="Контур 53" d="M21.44,30.317A1.363,1.363,0,0,1,22.8,28.96h0a1.363,1.363,0,0,1,1.364,1.357v1.531A1.363,1.363,0,0,1,22.8,33.2h0a1.363,1.363,0,0,1-1.364-1.357Z" transform="translate(-12.497 -10.998)" fill="#fff"/>
  <path id="Контур_54" data-name="Контур 54" d="M16.32,30.317a1.363,1.363,0,0,1,1.364-1.357h0a1.363,1.363,0,0,1,1.364,1.357v1.531A1.363,1.363,0,0,1,17.684,33.2h0a1.363,1.363,0,0,1-1.364-1.357Z" transform="translate(-12.227 -10.998)" fill="#fff"/>
  <path id="Контур_55" data-name="Контур 55" d="M58.654,19.869a3.957,3.957,0,0,1-1.9-.452,3.339,3.339,0,0,1-1.3-1.275,3.884,3.884,0,0,1,0-3.68,3.246,3.246,0,0,1,1.3-1.262,4.095,4.095,0,0,1,3.913.066,2.945,2.945,0,0,1,1.282,1.528l-1.254.2a1.834,1.834,0,0,0-.777-.771,2.372,2.372,0,0,0-1.186-.292,2.269,2.269,0,0,0-1.691.664,2.365,2.365,0,0,0-.641,1.714,2.366,2.366,0,0,0,.641,1.714,2.294,2.294,0,0,0,1.691.651,2.419,2.419,0,0,0,1.227-.306,1.855,1.855,0,0,0,.791-.81l1.254.2A3.034,3.034,0,0,1,60.7,19.324,3.917,3.917,0,0,1,58.654,19.869Z" transform="translate(-14.263 -10.144)" fill="#fff"/>
  <path id="Контур_56" data-name="Контур 56" d="M64.348,12.875H69.3v6.869H67.961V14.071H65.589l-.2,3.242a3,3,0,0,1-.641,1.86,1.984,1.984,0,0,1-1.554.638,4.581,4.581,0,0,1-.573-.04l-.136-1.249q.177.013.532.013a.985.985,0,0,0,.777-.266,1.583,1.583,0,0,0,.273-.93Z" transform="translate(-14.657 -10.151)" fill="#fff"/>
  <path id="Контур_57" data-name="Контур 57" d="M76.6,12.875h1.377l-2.945,7.9a2.741,2.741,0,0,1-.859,1.289,2.308,2.308,0,0,1-1.418.4H71.7l-.123-1.2h1.254a.966.966,0,0,0,.614-.173,1.2,1.2,0,0,0,.368-.571l.15-.4L70.83,12.875h1.432l2.236,5.3h.191Z" transform="translate(-15.096 -10.151)" fill="#fff"/>
  <path id="Контур_58" data-name="Контур 58" d="M89.149,19.744h-9.5V12.875h1.336v5.673h2.754V12.875h1.336v5.673h2.74V12.875h1.336Z" transform="translate(-15.56 -10.151)" fill="#fff"/>
  <path id="Контур_59" data-name="Контур 59" d="M94.365,12.735a2.623,2.623,0,0,1,2.059.837,3.273,3.273,0,0,1,.763,2.312v3.853h-.954l-.314-1.076a2.811,2.811,0,0,1-.913.864,2.618,2.618,0,0,1-1.377.345,2.8,2.8,0,0,1-1.268-.279,2.145,2.145,0,0,1-.873-.771,2.1,2.1,0,0,1-.314-1.129,1.839,1.839,0,0,1,.791-1.554,3.812,3.812,0,0,1,2.29-.585h1.6a1.967,1.967,0,0,0-.464-1.249,1.4,1.4,0,0,0-1.091-.452,1.731,1.731,0,0,0-.913.239,1.6,1.6,0,0,0-.6.625l-1.241-.2a2.371,2.371,0,0,1,1.05-1.3A3.312,3.312,0,0,1,94.365,12.735Zm-.45,6.032a1.857,1.857,0,0,0,1.391-.545,2.092,2.092,0,0,0,.545-1.528v-.08H94.3q-1.772,0-1.772,1.036a.986.986,0,0,0,.382.81A1.567,1.567,0,0,0,93.915,18.766Z" transform="translate(-16.167 -10.144)" fill="#fff"/>
  <path id="Контур_60" data-name="Контур 60" d="M101.355,19.592H99.378V12.724h1.295v5.407h.2l2.85-5.407H105.7v6.869h-1.3V14.2h-.2Zm1.2-7.759a2.4,2.4,0,0,1-1.485-.452,1.969,1.969,0,0,1-.7-1.382h1.09a1.018,1.018,0,0,0,.341.651,1.225,1.225,0,0,0,.749.212,1.167,1.167,0,0,0,.736-.212.939.939,0,0,0,.341-.651h1.1a2,2,0,0,1-.723,1.382A2.319,2.319,0,0,1,102.555,11.833Z" transform="translate(-16.599 -10)" fill="#fff"/>
  <path id="Контур_61" data-name="Контур 61" d="M111.036,19.744H109.7V14.071h-2.44v-1.2h6.218v1.2h-2.44Z" transform="translate(-17.014 -10.151)" fill="#fff"/>
  <path id="Контур_62" data-name="Контур 62" d="M121.562,16.255q0,.266-.014.412h-5.822a2.2,2.2,0,0,0,.736,1.461,2.347,2.347,0,0,0,1.6.545,2.674,2.674,0,0,0,1.186-.252,1.975,1.975,0,0,0,.8-.691l1.254.2a2.971,2.971,0,0,1-1.323,1.435,4.024,4.024,0,0,1-2,.5,3.877,3.877,0,0,1-1.881-.452,3.332,3.332,0,0,1-1.3-1.275,3.879,3.879,0,0,1,0-3.68A3.271,3.271,0,0,1,116.08,13.2a3.956,3.956,0,0,1,3.722,0,3.246,3.246,0,0,1,1.3,1.262A3.5,3.5,0,0,1,121.562,16.255Zm-3.613-2.365a2.171,2.171,0,0,0-1.391.465,2.236,2.236,0,0,0-.764,1.249H120.1a2.142,2.142,0,0,0-.764-1.236A2.1,2.1,0,0,0,117.948,13.89Z" transform="translate(-17.386 -10.144)" fill="#fff"/>
  <path id="Контур_63" data-name="Контур 63" d="M131.459,16.143a1.819,1.819,0,0,1,.873.651,1.638,1.638,0,0,1,.341,1.036,1.6,1.6,0,0,1-.327.983,2.1,2.1,0,0,1-.887.691,3.368,3.368,0,0,1-1.308.239h-3.368V12.875h3.245a3.064,3.064,0,0,1,1.241.239,2.021,2.021,0,0,1,.845.651,1.513,1.513,0,0,1,.314.943,1.5,1.5,0,0,1-.259.877A1.6,1.6,0,0,1,131.459,16.143Zm-3.34-2.166v1.687h1.909a1.234,1.234,0,0,0,.764-.226.772.772,0,0,0,0-1.222,1.187,1.187,0,0,0-.764-.239Zm2.032,4.663a1.318,1.318,0,0,0,.858-.266.892.892,0,0,0,0-1.382,1.318,1.318,0,0,0-.858-.266h-2.032v1.913Z" transform="translate(-18.041 -10.151)" fill="#fff"/>
  <path id="Контур_64" data-name="Контур 64" d="M64.456,42.413h-3.9L55,27h2.877l4.438,12.7h.446L67.356,27h2.832Z" transform="translate(-14.263 -10.895)" fill="#fff"/>
  <path id="Контур_65" data-name="Контур 65" d="M78.1,34.433l7.226,7.98H81.8l-5.888-6.6h-.669v6.6H72.566V27h2.676v6.275h.647L81.465,27h3.3Z" transform="translate(-15.188 -10.895)" fill="#fff"/>
  <path id="Контур_66" data-name="Контур 66" d="M94.419,42.413H91.809V27H96l4.282,11.653h.357L105.012,27h4.1V42.413h-2.609V30.5h-.357l-4.482,11.915h-2.5L94.776,30.5h-.357Z" transform="translate(-16.2 -10.895)" fill="#fff"/>
  <path id="Контур_67" data-name="Контур 67" d="M121.081,31.269h2.609l-4.75,12.789a5.033,5.033,0,0,1-1.561,2.339,4.026,4.026,0,0,1-2.52.721H113.1l-.224-2.3h2.164a1.481,1.481,0,0,0,.981-.284,1.964,1.964,0,0,0,.6-.94l.135-.35L111.6,31.269h2.743l3.412,8.2h.357Z" transform="translate(-17.242 -11.119)" fill="#fff"/>
  <path id="Контур_68" data-name="Контур 68" d="M131.984,36.832a3.344,3.344,0,0,1,1.583.984,2.34,2.34,0,0,1,.647,1.683,2.689,2.689,0,0,1-.6,1.705,4.037,4.037,0,0,1-1.695,1.2,6.745,6.745,0,0,1-2.52.437,5.891,5.891,0,0,1-3.256-.875,4.084,4.084,0,0,1-1.762-2.317l2.365-.394a2.494,2.494,0,0,0,1,1.115,3.5,3.5,0,0,0,1.629.328,3.109,3.109,0,0,0,1.672-.372,1.152,1.152,0,0,0,.6-1.028q0-1.29-2.275-1.29h-1.45V35.826h1.45a3.016,3.016,0,0,0,1.56-.328,1.074,1.074,0,0,0,.535-.94,1.152,1.152,0,0,0-.557-1.006,2.439,2.439,0,0,0-1.383-.372,2.893,2.893,0,0,0-1.494.394,2.7,2.7,0,0,0-1,1.071l-2.365-.394a4.228,4.228,0,0,1,1.829-2.383,5.8,5.8,0,0,1,3.123-.831,5.9,5.9,0,0,1,2.275.415,3.637,3.637,0,0,1,1.561,1.159,2.665,2.665,0,0,1,.58,1.683,2.407,2.407,0,0,1-.58,1.618A2.762,2.762,0,0,1,131.984,36.832Z" transform="translate(-17.915 -11.107)" fill="#fff"/>
  <path id="Контур_69" data-name="Контур 69" d="M136.877,42.638V31.269h2.565V34.5h1.807a5.5,5.5,0,0,1,2.453.525,3.908,3.908,0,0,1,1.673,1.443,3.739,3.739,0,0,1,.6,2.1,3.845,3.845,0,0,1-.6,2.121,4.087,4.087,0,0,1-1.695,1.443,5.656,5.656,0,0,1-2.431.5Zm13.046,0h-2.565V31.269h2.565Zm-8.675-2.186a2.293,2.293,0,0,0,1.561-.525,1.828,1.828,0,0,0,0-2.711,2.292,2.292,0,0,0-1.561-.525h-1.807v3.76Z" transform="translate(-18.572 -11.119)" fill="#fff"/>
  <path id="Контур_70" data-name="Контур 70" d="M163.806,42.638h-3.368l-4.014-4.525H155.8v4.525h-2.565V31.269H155.8v4.416h.625l3.88-4.416h3.055l-4.885,5.466Z" transform="translate(-19.433 -11.119)" fill="#fff"/>
  <path id="Контур_71" data-name="Контур 71" d="M176.331,36.81q0,.328-.045.809h-9.322a3.3,3.3,0,0,0,1.115,2.143,3.581,3.581,0,0,0,2.386.787,4.045,4.045,0,0,0,1.761-.372,2.889,2.889,0,0,0,1.227-1.006l2.409.394a4.693,4.693,0,0,1-2.164,2.427,6.8,6.8,0,0,1-3.39.853,6.489,6.489,0,0,1-3.122-.743,5.638,5.638,0,0,1-2.141-2.1,6.156,6.156,0,0,1-.758-3.061,6.035,6.035,0,0,1,.758-3.039,5.436,5.436,0,0,1,2.141-2.1,6.34,6.34,0,0,1,3.122-.765,6.212,6.212,0,0,1,3.1.765,5.291,5.291,0,0,1,2.141,2.077A5.622,5.622,0,0,1,176.331,36.81Zm-6.022-3.585a3.195,3.195,0,0,0-3.19,2.427h6.423a3.357,3.357,0,0,0-1.2-1.749A3.147,3.147,0,0,0,170.309,33.225Z" transform="translate(-20.015 -11.107)" fill="#fff"/>
</svg>
