<svg xmlns="http://www.w3.org/2000/svg" width="186.5" height="43.493" viewBox="0 0 186.5 43.493">
  <g id="button_white" transform="translate(0.5 0.5)">
    <rect id="Прямоугольник_1" data-name="Прямоугольник 1" width="42.493" height="42.493" rx="21.246" transform="translate(0 0)" fill="none" stroke="#fff" stroke-width="1"/>
    <path id="Контур_3" data-name="Контур 3" d="M58.763,56.1A16.077,16.077,0,0,1,66.9,53v4.867a11.288,11.288,0,1,0,12.5,9l4.079-3.286,0-.026A16.088,16.088,0,1,1,58.763,56.1Z" transform="translate(-47.099 -47.528)" fill="#fff"/>
    <path id="Контур_4" data-name="Контур 4" d="M102.715,58.739l.017.043-2.75,4.366a11.424,11.424,0,0,0-3.909-3.587V69.5a5.52,5.52,0,1,1-2.437-4.578V53.556A16.227,16.227,0,0,1,102.715,58.739Z" transform="translate(-69.325 -47.904)" fill="#fff"/>
    <path id="Контур_5" data-name="Контур 5" d="M200.778,53.886h7.288V63.58h-1.284V55.049h-4.732V63.58h-1.271Z" transform="translate(-147.814 -48.128)" fill="#fff"/>
    <path id="Контур_6" data-name="Контур 6" d="M231.755,69.07a3.641,3.641,0,0,1-1.339-.243,3.117,3.117,0,0,1-1.082-.7,3.426,3.426,0,0,1-.7-1.149,4.792,4.792,0,0,1,0-3.1,3.255,3.255,0,0,1,.7-1.149,3.117,3.117,0,0,1,1.082-.7,3.641,3.641,0,0,1,1.339-.243,3.678,3.678,0,0,1,1.352.243,2.983,2.983,0,0,1,1.068.7,3.156,3.156,0,0,1,.717,1.149,4.567,4.567,0,0,1,0,3.1,3.316,3.316,0,0,1-.717,1.149,2.983,2.983,0,0,1-1.068.7A3.679,3.679,0,0,1,231.755,69.07Zm0-1.068a2.422,2.422,0,0,0,.865-.149,1.977,1.977,0,0,0,.7-.473,2.222,2.222,0,0,0,.46-.811,4.152,4.152,0,0,0,0-2.3,2.09,2.09,0,0,0-.46-.8,1.767,1.767,0,0,0-.7-.473,2.389,2.389,0,0,0-1.731,0,1.786,1.786,0,0,0-.69.473,2.193,2.193,0,0,0-.446.8,4.152,4.152,0,0,0,0,2.3,2.337,2.337,0,0,0,.446.811,2.007,2.007,0,0,0,.69.473A2.422,2.422,0,0,0,231.755,68Z" transform="translate(-166.527 -53.483)" fill="#fff"/>
    <path id="Контур_7" data-name="Контур 7" d="M255.939,69.07a4.248,4.248,0,0,1-1.474-.243,3.224,3.224,0,0,1-1.109-.717,3.16,3.16,0,0,1-.7-1.149,4.96,4.96,0,0,1,0-3.069,3.176,3.176,0,0,1,.717-1.136,2.963,2.963,0,0,1,1.122-.717,4.126,4.126,0,0,1,1.5-.257,4.479,4.479,0,0,1,1.19.149,2.4,2.4,0,0,1,.892.406V63.4a3.153,3.153,0,0,0-.973-.419,4.016,4.016,0,0,0-1.1-.149,2.342,2.342,0,0,0-1.812.635,2.854,2.854,0,0,0-.568,1.947,2.9,2.9,0,0,0,.554,1.947,2.215,2.215,0,0,0,1.758.635,4.276,4.276,0,0,0,1.163-.149,4.784,4.784,0,0,0,.973-.406v1.068a3.971,3.971,0,0,1-.919.392A4.144,4.144,0,0,1,255.939,69.07Z" transform="translate(-182.825 -53.483)" fill="#fff"/>
    <path id="Контур_8" data-name="Контур 8" d="M274.309,67.042a8.874,8.874,0,0,0,.243-1.866q.054-1.176.054-2.974h4.719v7.017h-1.2v-6h-2.393q-.014,1.447-.095,2.569a7.96,7.96,0,0,1-.311,1.893,2.463,2.463,0,0,1-.69,1.176,1.758,1.758,0,0,1-1.2.392h-.108a.626.626,0,0,1-.122-.014V68.056a.927.927,0,0,0,.176.014Q274.065,68.07,274.309,67.042Z" transform="translate(-196.922 -53.767)" fill="#fff"/>
    <path id="Контур_9" data-name="Контур 9" d="M299.9,69.138a8.035,8.035,0,0,1-.514,1.109,3.7,3.7,0,0,1-.608.825,2.175,2.175,0,0,1-.757.5,2.464,2.464,0,0,1-.96.176,2.883,2.883,0,0,1-.5-.041,1.505,1.505,0,0,1-.419-.108V70.449a1.045,1.045,0,0,0,.379.162,1.767,1.767,0,0,0,.5.068,1.337,1.337,0,0,0,.825-.243,2.316,2.316,0,0,0,.622-.744l-2.853-7.49h1.312l2.231,5.922,2.217-5.922h1.149Z" transform="translate(-212.122 -53.767)" fill="#fff"/>
    <path id="Контур_10" data-name="Контур 10" d="M329.5,69.219h-8.761V62.2h1.19v6h2.6v-6h1.19v6h2.6v-6h1.19Z" transform="translate(-229.156 -53.767)" fill="#fff"/>
    <path id="Контур_11" data-name="Контур 11" d="M357.371,67.6a4.113,4.113,0,0,1-.311.514,2.355,2.355,0,0,1-.473.473,2.394,2.394,0,0,1-.676.352,2.655,2.655,0,0,1-.892.135,2.187,2.187,0,0,1-1.528-.527A2,2,0,0,1,352.909,67a1.9,1.9,0,0,1,.8-1.69,4.127,4.127,0,0,1,2.3-.541h1.311v-.581a1.276,1.276,0,0,0-.379-1.041,2.076,2.076,0,0,0-1.3-.311,3.5,3.5,0,0,0-1.23.216,5.851,5.851,0,0,0-1.041.473V62.458a5.257,5.257,0,0,1,1.014-.446,4.225,4.225,0,0,1,1.42-.23,3.156,3.156,0,0,1,2.015.554,2.015,2.015,0,0,1,.69,1.69v4.056q.014.149.013.311t.027.311q.014.135.027.23h-1.082q-.041-.189-.081-.527t-.027-.608Zm-2.1.406a1.84,1.84,0,0,0,.946-.23,2.212,2.212,0,0,0,.987-1.122,1.467,1.467,0,0,0,.108-.419v-.514h-1.19a2.978,2.978,0,0,0-1.555.311,1,1,0,0,0-.473.906,1.07,1.07,0,0,0,.284.771A1.184,1.184,0,0,0,355.275,68Z" transform="translate(-250.971 -53.483)" fill="#fff"/>
    <path id="Контур_12" data-name="Контур 12" d="M379.2,55.431a3,3,0,0,1-.946-.135,2.082,2.082,0,0,1-.663-.392,1.791,1.791,0,0,1-.392-.581,2.14,2.14,0,0,1-.122-.73h1.19a.984.984,0,0,0,.243.744,1,1,0,0,0,.69.23.945.945,0,0,0,.676-.23.984.984,0,0,0,.243-.744h1.19a1.809,1.809,0,0,1-.527,1.311A2.12,2.12,0,0,1,379.2,55.431ZM377.3,61.758l3.745-5.395h1.2v7.017h-1.19V58l-3.732,5.381h-1.217V56.364h1.19Z" transform="translate(-266.702 -47.929)" fill="#fff"/>
    <path id="Контур_13" data-name="Контур 13" d="M402.84,63.216v6h-1.19v-6h-2.2V62.2h5.638v1.014Z" transform="translate(-282.527 -53.767)" fill="#fff"/>
    <path id="Контур_14" data-name="Контур 14" d="M425.14,68.339a3.764,3.764,0,0,1-.365.23,4.232,4.232,0,0,1-.527.243,4.446,4.446,0,0,1-.7.176,4.352,4.352,0,0,1-.879.081,3.554,3.554,0,0,1-2.691-.96,3.732,3.732,0,0,1-.919-2.691,4.49,4.49,0,0,1,.243-1.528,3.277,3.277,0,0,1,.7-1.136,2.924,2.924,0,0,1,1.055-.717,3.615,3.615,0,0,1,2.677,0,2.381,2.381,0,0,1,.973.757,2.789,2.789,0,0,1,.527,1.244,4.892,4.892,0,0,1,0,1.7h-4.948a2.43,2.43,0,0,0,.676,1.7,2.61,2.61,0,0,0,1.812.554,3.786,3.786,0,0,0,1.393-.23,4.879,4.879,0,0,0,.974-.5Zm-2.785-5.5a1.974,1.974,0,0,0-1.325.473,2.261,2.261,0,0,0-.7,1.433H424.1a1.719,1.719,0,0,0-.446-1.433A1.812,1.812,0,0,0,422.355,62.837Z" transform="translate(-295.825 -53.483)" fill="#fff"/>
    <path id="Контур_15" data-name="Контур 15" d="M457.021,66.109h-3.394v3.11h-1.19V62.2h1.19V65.1h3.394V62.2h1.19v7.017h-1.19Z" transform="translate(-318.46 -53.767)" fill="#fff"/>
    <path id="Контур_16" data-name="Контур 16" d="M479.8,67.6a4.118,4.118,0,0,1-.311.514,2.354,2.354,0,0,1-.473.473,2.392,2.392,0,0,1-.676.352,2.655,2.655,0,0,1-.892.135,2.187,2.187,0,0,1-1.528-.527A2,2,0,0,1,475.341,67a1.9,1.9,0,0,1,.8-1.69,4.126,4.126,0,0,1,2.3-.541h1.312v-.581a1.276,1.276,0,0,0-.379-1.041,2.076,2.076,0,0,0-1.3-.311,3.5,3.5,0,0,0-1.23.216,5.855,5.855,0,0,0-1.041.473V62.458a5.259,5.259,0,0,1,1.014-.446,4.225,4.225,0,0,1,1.42-.23,3.156,3.156,0,0,1,2.015.554,2.015,2.015,0,0,1,.69,1.69v4.056q.014.149.013.311t.027.311q.013.135.027.23h-1.082q-.041-.189-.081-.527t-.027-.608Zm-2.1.406a1.84,1.84,0,0,0,.946-.23,2.212,2.212,0,0,0,.987-1.122,1.47,1.47,0,0,0,.108-.419v-.514h-1.19a2.978,2.978,0,0,0-1.555.311,1,1,0,0,0-.474.906,1.07,1.07,0,0,0,.284.771A1.184,1.184,0,0,0,477.707,68Z" transform="translate(-333.991 -53.483)" fill="#fff"/>
    <path id="Контур_17" data-name="Контур 17" d="M205.251,115.954H207.9V100.74h-3.853c-3.875,0-5.91,1.992-5.91,4.925,0,2.342,1.116,3.721,3.108,5.144l-3.459,5.144h2.868l3.853-5.757-1.335-.9c-1.62-1.095-2.408-1.948-2.408-3.787,0-1.62,1.138-2.714,3.305-2.714h1.182Zm51.07.219a4.445,4.445,0,0,0,2.692-.679v-2.123a4.215,4.215,0,0,1-2.539.744c-1.861,0-2.627-1.445-2.627-3.721,0-2.386.941-3.612,2.649-3.612a5.146,5.146,0,0,1,2.517.679v-2.211a6.072,6.072,0,0,0-2.8-.525c-3.327,0-5.057,2.386-5.057,5.735C251.154,114.137,252.84,116.173,256.321,116.173Zm-16.286-.963v-2.123a6.639,6.639,0,0,1-3.437,1.029c-1.9,0-2.627-.9-2.736-2.736h6.283V110c0-3.831-1.686-5.276-4.29-5.276-3.174,0-4.685,2.43-4.685,5.757,0,3.831,1.883,5.691,5.21,5.691A6.473,6.473,0,0,0,240.034,115.209Zm-23.86-10.267V109.3h-3.481v-4.356h-2.6v11.011h2.6v-4.6h3.481v4.6h2.6V104.943Zm14.36,8.953h-1.16v-8.953h-7.6v.941c0,2.693-.175,6.173-1.094,8.012h-.81v4.575h2.408v-2.517h5.845v2.517h2.408Zm17.819,2.058h2.955l-4.181-5.932,3.678-5.079h-2.627l-3.678,5.079v-5.079h-2.6v11.011h2.6v-5.407Zm-12.543-9.172c1.292,0,1.686,1.073,1.686,2.452v.219h-3.634C233.927,107.7,234.562,106.782,235.809,106.782Zm-9.041,7.114h-3.678a19.71,19.71,0,0,0,.919-6.567V107h2.758Z" transform="translate(-145.785 -79.899)" fill="#fff"/>
    <path id="Контур_18" data-name="Контур 18" d="M412.3,115.954h2.189l3.108-11.492v11.492h2.5V100.74h-3.437l-3.087,11.208-3.043-11.208h-3.5v15.214H409.2V104.461Z" transform="translate(-287.669 -79.899)" fill="#fff"/>
    <path id="Контур_19" data-name="Контур 19" d="M453.308,128.2c2.43,0,3.327-1.729,4.072-3.984l3.437-10.42H458.3l-2.43,8.275-2.43-8.275H450.7l3.787,11.492a1.482,1.482,0,0,1-1.423.854,1.639,1.639,0,0,1-1.182-.438v2.123A2.138,2.138,0,0,0,453.308,128.2Z" transform="translate(-317.284 -88.752)" fill="#fff"/>
    <path id="Контур_20" data-name="Контур 20" d="M486.846,122.507A6.018,6.018,0,0,1,483.5,121.5v2.123a6.138,6.138,0,0,0,3.656.941c2.78,0,4.247-1.248,4.247-3.459a2.477,2.477,0,0,0-2.255-2.474,2.557,2.557,0,0,0,1.926-2.627c0-1.861-1.467-2.89-3.831-2.89a6.387,6.387,0,0,0-3.459.919v2.123a5.363,5.363,0,0,1,3.087-.985c.963,0,1.576.46,1.576,1.27,0,.854-.525,1.313-1.6,1.313H485.2v1.97h1.642c1.335,0,1.861.394,1.861,1.357C488.707,121.96,488.072,122.507,486.846,122.507Z" transform="translate(-339.521 -88.291)" fill="#fff"/>
    <path id="Контур_21" data-name="Контур 21" d="M513.478,113.8v11.011h3.962c2.561,0,4.378-1.313,4.378-3.9,0-2.452-1.62-3.743-4.334-3.743h-1.4V113.8Zm9.3,0v11.011h2.6V113.8Zm-5.494,8.953h-1.2v-3.524h1.27A1.558,1.558,0,0,1,519.126,121C519.126,122.268,518.4,122.749,517.287,122.749Z" transform="translate(-359.851 -88.752)" fill="#fff"/>
    <path id="Контур_22" data-name="Контур 22" d="M563.7,124.807h2.955l-4.181-5.932,3.678-5.079h-2.627l-3.678,5.079V113.8h-2.6v11.011h2.6V119.4Z" transform="translate(-389.525 -88.752)" fill="#fff"/>
    <path id="Контур_23" data-name="Контур 23" d="M595.027,123.6v-2.123a6.639,6.639,0,0,1-3.437,1.029c-1.9,0-2.627-.9-2.736-2.736h6.283v-1.379c0-3.831-1.685-5.276-4.29-5.276-3.174,0-4.685,2.43-4.685,5.757,0,3.831,1.883,5.691,5.21,5.691A6.474,6.474,0,0,0,595.027,123.6Zm-4.225-8.428c1.292,0,1.686,1.073,1.686,2.452v.219h-3.634C588.919,116.093,589.554,115.174,590.8,115.174Z" transform="translate(-409.136 -88.291)" fill="#fff"/>
  </g>
</svg>
